<svg width="1600" height="1100" viewBox="0 0 1600 1100" fill="none" xmlns="http://www.w3.org/2000/svg">
  <rect width="1600" height="1100" fill="#0C162B"/>
  <rect width="1600" height="1100" fill="url(#bgGlow)" fill-opacity="0.95"/>
  <circle cx="1270" cy="220" r="240" fill="#29B8C8" fill-opacity="0.18"/>
  <circle cx="340" cy="870" r="300" fill="#5DC840" fill-opacity="0.14"/>
  <circle cx="830" cy="510" r="420" fill="#14284B"/>
  <rect x="126" y="126" width="1348" height="848" rx="42" fill="url(#panel)" stroke="rgba(255,255,255,0.14)"/>
  <g opacity="0.2">
    <path d="M126 268H1474" stroke="#9FD8E0" stroke-width="2" stroke-dasharray="8 12"/>
    <path d="M126 666H1474" stroke="#9FD8E0" stroke-width="2" stroke-dasharray="8 12"/>
    <path d="M430 126V974" stroke="#9FD8E0" stroke-width="2" stroke-dasharray="8 12"/>
    <path d="M1110 126V974" stroke="#9FD8E0" stroke-width="2" stroke-dasharray="8 12"/>
  </g>
  <g>
    <rect x="220" y="224" width="390" height="294" rx="30" fill="#10203C" stroke="#2AC1D1" stroke-opacity="0.25"/>
    <rect x="252" y="258" width="328" height="22" rx="11" fill="#6DE0EC" fill-opacity="0.18"/>
    <rect x="252" y="304" width="220" height="18" rx="9" fill="#FFFFFF" fill-opacity="0.86"/>
    <rect x="252" y="336" width="288" height="14" rx="7" fill="#C6D2E3" fill-opacity="0.6"/>
    <rect x="252" y="370" width="250" height="14" rx="7" fill="#C6D2E3" fill-opacity="0.42"/>
    <g>
      <rect x="252" y="412" width="142" height="74" rx="18" fill="#132A4E"/>
      <path d="M296 460V428" stroke="#5DC840" stroke-width="10" stroke-linecap="round"/>
      <path d="M350 460V428" stroke="#29B8C8" stroke-width="10" stroke-linecap="round"/>
      <path d="M278 460H368" stroke="#DCE9F5" stroke-width="10" stroke-linecap="round"/>
    </g>
    <g>
      <rect x="422" y="412" width="158" height="74" rx="18" fill="#132A4E"/>
      <circle cx="468" cy="449" r="18" fill="#5DC840" fill-opacity="0.9"/>
      <rect x="498" y="434" width="52" height="10" rx="5" fill="#DCE9F5"/>
      <rect x="498" y="454" width="34" height="10" rx="5" fill="#C6D2E3" fill-opacity="0.7"/>
    </g>
  </g>
  <g>
    <rect x="690" y="196" width="690" height="708" rx="34" fill="#0A1428" stroke="#FFFFFF" stroke-opacity="0.12"/>
    <rect x="742" y="258" width="586" height="534" rx="28" fill="url(#stageGlow)"/>
    <ellipse cx="1032" cy="736" rx="210" ry="42" fill="#08101F" fill-opacity="0.7"/>
    <rect x="872" y="624" width="320" height="28" rx="14" fill="#F3F7FB"/>
    <path d="M892 624C904 574 934 538 984 514C1000 506 1020 500 1032 500C1044 500 1064 506 1080 514C1130 538 1160 574 1172 624" stroke="#F3F7FB" stroke-width="18" stroke-linecap="round"/>
    <rect x="918" y="388" width="228" height="168" rx="28" fill="#10203C" stroke="#5DC840" stroke-opacity="0.4"/>
    <circle cx="1032" cy="434" r="56" fill="#17345F"/>
    <path d="M1008 438L1026 458L1060 414" stroke="#89F067" stroke-width="18" stroke-linecap="round" stroke-linejoin="round"/>
    <rect x="952" y="516" width="160" height="14" rx="7" fill="#DCE9F5" fill-opacity="0.8"/>
    <rect x="980" y="544" width="104" height="12" rx="6" fill="#DCE9F5" fill-opacity="0.5"/>
    <g>
      <rect x="788" y="308" width="118" height="118" rx="24" fill="#132A4E"/>
      <path d="M826 386V340" stroke="#FFFFFF" stroke-width="12" stroke-linecap="round"/>
      <path d="M870 386V340" stroke="#FFFFFF" stroke-width="12" stroke-linecap="round"/>
      <path d="M810 386H886" stroke="#5DC840" stroke-width="12" stroke-linecap="round"/>
    </g>
    <g>
      <rect x="1158" y="308" width="118" height="118" rx="24" fill="#132A4E"/>
      <circle cx="1217" cy="365" r="28" fill="#29B8C8" fill-opacity="0.22"/>
      <path d="M1200 365H1234" stroke="#DCE9F5" stroke-width="12" stroke-linecap="round"/>
      <path d="M1217 348V382" stroke="#DCE9F5" stroke-width="12" stroke-linecap="round"/>
    </g>
  </g>
  <g>
    <rect x="220" y="590" width="390" height="284" rx="30" fill="#10203C" stroke="#5DC840" stroke-opacity="0.25"/>
    <rect x="252" y="628" width="176" height="18" rx="9" fill="#FFFFFF" fill-opacity="0.92"/>
    <rect x="252" y="660" width="230" height="14" rx="7" fill="#D4DEEA" fill-opacity="0.58"/>
    <rect x="252" y="710" width="328" height="118" rx="22" fill="#132A4E"/>
    <g>
      <rect x="282" y="734" width="120" height="70" rx="20" fill="#F3F7FB"/>
      <rect x="312" y="754" width="60" height="8" rx="4" fill="#29B8C8"/>
      <rect x="300" y="774" width="84" height="8" rx="4" fill="#5DC840"/>
    </g>
    <g>
      <circle cx="468" cy="769" r="38" fill="#1A335B"/>
      <path d="M468 736V802" stroke="#F3F7FB" stroke-width="12" stroke-linecap="round"/>
      <path d="M438 770H498" stroke="#F3F7FB" stroke-width="12" stroke-linecap="round"/>
    </g>
    <g>
      <rect x="528" y="734" width="24" height="70" rx="12" fill="#29B8C8"/>
      <rect x="560" y="752" width="24" height="52" rx="12" fill="#5DC840"/>
    </g>
  </g>
  <defs>
    <radialGradient id="bgGlow" cx="0" cy="0" r="1" gradientUnits="userSpaceOnUse" gradientTransform="translate(800 550) rotate(90) scale(700 900)">
      <stop stop-color="#16335D"/>
      <stop offset="1" stop-color="#08101F"/>
    </radialGradient>
    <linearGradient id="panel" x1="126" y1="126" x2="1474" y2="974" gradientUnits="userSpaceOnUse">
      <stop stop-color="#12213F"/>
      <stop offset="1" stop-color="#0C162B"/>
    </linearGradient>
    <linearGradient id="stageGlow" x1="742" y1="258" x2="1328" y2="792" gradientUnits="userSpaceOnUse">
      <stop stop-color="#15386A"/>
      <stop offset="0.55" stop-color="#10203C"/>
      <stop offset="1" stop-color="#0F1A31"/>
    </linearGradient>
  </defs>
</svg>